HIERARCHY
ROOT SpineBase
{
  OFFSET 0.000000 0.000000 0.000000
  CHANNELS 6 Xposition Yposition Zposition Zrotation Xrotation Yrotation
  JOINT SpineMid
  {
    OFFSET -0.000000 30.070815 0.000000
    CHANNELS 3 Zrotation Xrotation Yrotation
    JOINT SpineShoulder
    {
      OFFSET -0.127319 22.343301 -0.762588
      CHANNELS 3 Zrotation Xrotation Yrotation
      JOINT Neck
      {
        OFFSET -0.074586 7.388448 -0.563504
        CHANNELS 3 Zrotation Xrotation Yrotation
        JOINT Head
        {
          OFFSET 5.495486 12.452511 -1.412195
          CHANNELS 3 Zrotation Xrotation Yrotation
          End Site
          {
            OFFSET 0 0 0
          }
        }
      }
      JOINT ShoulderLeft
      {
        OFFSET -11.839893 -3.074615 -8.797954
        CHANNELS 3 Zrotation Xrotation Yrotation
        JOINT ElbowLeft
        {
          OFFSET -5.285795 -24.294125 -3.894120
          CHANNELS 3 Zrotation Xrotation Yrotation
          JOINT WristLeft
          {
            OFFSET 3.792014 -20.610800 -3.898720
            CHANNELS 3 Zrotation Xrotation Yrotation
            JOINT HandLeft
            {
              OFFSET 1.492429 -5.138905 0.127103
              CHANNELS 3 Zrotation Xrotation Yrotation
              JOINT HandTipLeft
              {
                OFFSET 1.095127 -6.735340 -0.418317
                CHANNELS 3 Zrotation Xrotation Yrotation
                End Site
                {
                  OFFSET 0 0 0
                }
              }
              JOINT ThumbLeft
              {
                OFFSET 3.095860 -1.250289 -1.683932
                CHANNELS 3 Zrotation Xrotation Yrotation
                End Site
                {
                  OFFSET 0 0 0
                }
              }
            }
          }
        }
      }
      JOINT ShoulderRight
      {
        OFFSET 13.221794 -3.793169 7.112426
        CHANNELS 3 Zrotation Xrotation Yrotation
        JOINT ElbowRight
        {
          OFFSET 3.164161 -27.654925 4.323481
          CHANNELS 3 Zrotation Xrotation Yrotation
          JOINT WristRight
          {
            OFFSET 1.801788 -20.565283 -5.278029
            CHANNELS 3 Zrotation Xrotation Yrotation
            JOINT HandRight
            {
              OFFSET 1.095176 -2.549395 0.008168
              CHANNELS 3 Zrotation Xrotation Yrotation
              JOINT HandTipRight
              {
                OFFSET 0.357414 -3.738930 -1.712089
                CHANNELS 3 Zrotation Xrotation Yrotation
                End Site
                {
                  OFFSET 0 0 0
                }
              }
              JOINT ThumbRight
              {
                OFFSET -2.320347 1.080222 -1.664243
                CHANNELS 3 Zrotation Xrotation Yrotation
                End Site
                {
                  OFFSET 0 0 0
                }
              }
            }
          }
        }
      }
    }
  }
  JOINT HipLeft
  {
    OFFSET -6.468354 1.825722 -6.922160
    CHANNELS 3 Zrotation Xrotation Yrotation
    JOINT KneeLeft
    {
      OFFSET -6.898657 -28.909587 -1.565858
      CHANNELS 3 Zrotation Xrotation Yrotation
      JOINT AnkleLeft
      {
        OFFSET -3.438175 -33.664042 0.810113
        CHANNELS 3 Zrotation Xrotation Yrotation
        JOINT FootLeft
        {
          OFFSET 4.577835 -4.494003 -11.302002
          CHANNELS 3 Zrotation Xrotation Yrotation
          End Site
          {
            OFFSET 0 0 0
          }
        }
      }
    }
  }
  JOINT HipRight
  {
    OFFSET 5.742092 -0.695213 0.056728
    CHANNELS 3 Zrotation Xrotation Yrotation
    JOINT KneeRight
    {
      OFFSET -2.263077 -30.451104 9.216399
      CHANNELS 3 Zrotation Xrotation Yrotation
      JOINT AnkleRight
      {
        OFFSET 1.194948 -34.566926 10.466063
        CHANNELS 3 Zrotation Xrotation Yrotation
        JOINT FootRight
        {
          OFFSET 4.743875 -6.564649 -8.616869
          CHANNELS 3 Zrotation Xrotation Yrotation
          End Site
          {
            OFFSET 0 0 0
          }
        }
      }
    }
  }
}
MOTION
Frames: 6
Frame Time: 0.033333
41.645083 70.847266 407.910920 3.518128 -3.604724 -36.317195 -0.300134 -0.403050 36.528553 -0.142252 0.324956 0.099831 4.625990 6.216905 -1.148567 0.000000 0.000000 0.000000 -2.159977 -0.151849 0.548487 -15.772446 1.025763 2.411217 21.757961 38.707874 6.065954 -20.561415 -25.808809 -17.551822 0.000000 0.000000 0.000000 0.000000 0.000000 0.000000 -2.533805 1.026703 -0.332273 -5.006108 4.783450 1.913556 -38.667369 6.561486 4.646603 22.649208 -21.890715 2.186072 0.000000 0.000000 0.000000 0.000000 0.000000 0.000000 -13.968869 0.732599 35.730449 5.649541 -7.458274 1.185737 -7.397602 -17.341376 3.157044 0.000000 0.000000 0.000000 -10.587754 0.615688 34.884186 2.890248 -3.968818 1.069685 10.351787 -6.344479 -15.793816 0.000000 0.000000 0.000000
42.014240 70.087582 407.850139 3.215160 -2.872841 -37.139885 -0.757374 0.183068 37.297020 -0.108570 0.484123 0.092160 7.999855 6.654762 -1.962615 0.000000 0.000000 0.000000 -2.213715 -2.586591 0.757473 -16.261700 2.379487 2.776906 26.294778 51.681706 7.841009 -33.667897 -33.408690 -30.424646 0.000000 0.000000 0.000000 0.000000 0.000000 0.000000 -2.218253 -0.863707 -0.384589 -3.979248 7.245196 1.860340 -42.032758 6.090844 4.529127 23.026841 -23.442412 2.021637 0.000000 0.000000 0.000000 0.000000 0.000000 0.000000 -12.893968 -0.092619 36.490592 4.947194 -7.238500 1.021665 -9.341904 -22.495868 3.769864 0.000000 0.000000 0.000000 -9.874599 -0.237915 35.562686 2.533906 -3.323400 0.938597 8.047114 -4.565007 -10.430667 0.000000 0.000000 0.000000
42.357615 69.526373 407.623631 2.846326 -1.530862 -36.627381 -1.326976 0.899568 36.724308 -0.035621 0.460525 0.090363 11.169803 7.332416 -3.097791 0.000000 0.000000 0.000000 -2.498250 -5.509112 0.945562 -15.512984 3.473737 2.782292 28.764661 60.924121 8.833780 -43.459873 -38.100249 -41.105332 0.000000 0.000000 0.000000 0.000000 0.000000 0.000000 -1.886103 -3.240215 -0.430686 -2.639560 10.554021 1.741342 -43.333167 6.925503 5.572727 22.573161 -29.563622 -0.683815 0.000000 0.000000 0.000000 0.000000 0.000000 0.000000 -11.161437 -1.006591 35.891970 3.825067 -6.792539 0.810161 -8.920000 -22.801139 4.612066 0.000000 0.000000 0.000000 -8.094688 -1.702354 34.999740 1.604599 -2.288514 0.563203 6.989071 -6.886593 -9.744893 0.000000 0.000000 0.000000
42.886491 69.055143 407.308207 2.818469 0.189080 -34.997620 -1.602144 1.508916 35.054656 0.115732 0.719172 0.113305 12.197623 8.547398 -4.800520 0.000000 0.000000 0.000000 -3.590872 -7.860684 0.832001 -13.530319 3.132564 2.258338 31.791003 67.762397 7.853513 -53.885204 -44.897303 -52.123856 0.000000 0.000000 0.000000 0.000000 0.000000 0.000000 -2.128653 -5.861787 -0.519028 -0.611274 14.075503 1.307749 -42.376440 7.422422 6.338192 21.077351 -34.866185 -3.726184 0.000000 0.000000 0.000000 0.000000 0.000000 0.000000 -10.077139 -2.182710 34.066407 2.764941 -6.645104 0.648945 -7.659352 -22.605649 3.586018 0.000000 0.000000 0.000000 -6.139805 -3.920893 33.380011 1.178040 -0.847521 0.350193 8.626453 -5.800256 -10.627126 0.000000 0.000000 0.000000
43.507425 68.576700 406.999708 2.939998 2.436375 -32.250191 -2.073637 2.284821 32.252904 0.267377 0.566956 0.151683 11.305286 10.195940 -7.040538 0.000000 0.000000 0.000000 -3.787471 -9.494403 0.372125 -13.583896 1.768623 2.227524 28.579937 69.104981 10.324729 -55.370379 -48.658685 -55.180413 0.000000 0.000000 0.000000 0.000000 0.000000 0.000000 -2.382409 -8.735388 -0.622802 1.060208 18.956779 1.023902 -35.414462 1.868032 2.183579 17.371566 -33.837857 -4.584668 0.000000 0.000000 0.000000 0.000000 0.000000 0.000000 -9.084954 -3.719397 31.042011 1.681284 -6.582917 0.501094 -5.043530 -19.860682 1.940685 0.000000 0.000000 0.000000 -4.198266 -6.937463 30.670166 0.267253 0.984881 0.011522 6.378949 -8.308640 -8.610242 0.000000 0.000000 0.000000
44.055616 68.130679 406.665839 3.174615 4.932244 -28.396001 -2.486725 3.008989 28.317801 0.366804 0.305103 0.193011 8.426048 12.529144 -9.871126 0.000000 0.000000 0.000000 -4.129737 -9.113397 -0.512134 -13.496673 -1.800455 2.069648 22.173667 62.231866 12.566996 -47.380683 -53.684551 -49.286930 0.000000 0.000000 0.000000 0.000000 0.000000 0.000000 -2.505642 -11.749125 -0.723296 2.694605 22.287530 0.513201 -28.097383 0.182984 2.814649 12.158889 -34.147082 -6.785325 0.000000 0.000000 0.000000 0.000000 0.000000 0.000000 -8.376774 -5.360833 26.854277 0.421308 -6.382049 0.346874 -3.865126 -21.190432 -0.698769 0.000000 0.000000 0.000000 -2.591929 -10.421471 26.952062 -0.272492 3.170460 -0.174620 6.621136 -7.291382 -7.347264 0.000000 0.000000 0.000000
